<?xml version="1.0"?>
<svg width="32" height="32" xmlns="http://www.w3.org/2000/svg" xmlns:svg="http://www.w3.org/2000/svg" enable-background="new 414.204 291.25 10 10" version="1.1" xml:space="preserve">
 <g class="layer">
  <title>Layer 1</title>
  <rect fill="#f0f0f0" height="32" id="svg_2" width="32" x="0" y="0"/>
  <path d="m16.77,5.33c0.12,0.9 -0.39,-0.84 -0.75,0.94c-0.5,2.42 -0.41,0.84 0.66,2.47c1.67,2.54 2.24,1.21 1.53,-0.81c-0.27,-0.78 -0.21,-0.81 0.32,-0.81c0.55,0 0.78,-0.25 -0.02,-1.23c-0.98,-1.2 0.66,-1.03 0.2,-0.97c-0.72,0.1 -0.91,-0.39 -1.31,0.24l-0.63,0.17zm-5.29,-4.88c-0.18,0 -0.56,0.64 -0.83,1.42c-0.27,0.78 -0.12,1.42 0.34,1.42c0.46,0 0.83,-0.64 0.83,-1.42c0,-0.78 -0.15,-1.42 -0.34,-1.42zm9.84,-0.2c-0.1,0.02 -0.23,0.09 -0.4,0.2c-1.33,0.91 -1.29,3.4 0.06,3.49c0.85,0.06 0.85,0.17 0,0.55c-0.59,0.27 -0.85,0.9 -0.56,1.41c0.29,0.51 1.02,0.16 1.66,-0.8c0.96,-1.43 0.95,-1.76 -0.03,-2.01c-0.7,-0.17 -0.97,-0.91 -0.66,-1.8c0.26,-0.76 0.2,-1.01 -0.11,-0.94l0.04,-0.1zm-6.85,3.79c-0.08,-0.16 -0.19,0.01 -0.31,0.52c-0.22,0.91 -1.04,1.66 -1.83,1.67c-1.24,0.01 -1.26,0.13 -0.15,0.93c2.05,1.46 2.57,1.11 2.47,-1.66c-0.03,-0.8 -0.09,-1.29 -0.18,-1.46zm-9.23,-0.93c-0.3,0.03 -0.8,0.32 -1.28,0.76c-0.65,0.59 -1.43,0.79 -1.74,0.45c-0.31,-0.34 -0.56,0.11 -0.56,1c0,1.51 0.14,1.51 2.06,-0.08c1.13,-0.93 1.91,-1.87 1.73,-2.07c-0.04,-0.05 -0.12,-0.07 -0.22,-0.06l0.01,0zm18.16,1.33c-0.1,0.13 0.02,0.66 0.31,1.66c0.44,1.54 0.35,2.04 -0.31,1.6c-0.52,-0.36 -0.94,-0.2 -0.94,0.35c0,1.4 1.32,1.25 2.47,-0.29c0.75,-0.99 0.64,-1.61 -0.45,-2.6c-0.63,-0.58 -0.97,-0.85 -1.08,-0.72zm5.29,-2.72c-0.24,-0.08 -0.14,0.72 0.38,2.21c0.29,0.85 0.71,1.34 0.93,1.09c0.22,-0.24 -0.01,-1.21 -0.51,-2.16c-0.38,-0.72 -0.65,-1.09 -0.8,-1.14zm1.24,5.84c-0.11,0.02 -0.22,0.07 -0.34,0.15c-1.41,0.96 -0.06,2.36 2.26,2.36c0.52,-0.68 -1.39,-0.77 -1.39,-1.88c0,-0.45 -0.22,-0.68 -0.53,-0.63zm-20.65,1.82c-0.31,-0.06 -0.53,0.15 -0.53,0.56c0,0.55 0.39,1.01 0.86,1.01c0.47,0 0.85,-0.19 0.85,-0.42c0,-0.23 -0.38,-0.68 -0.85,-1c-0.12,-0.09 -0.23,-0.13 -0.33,-0.15zm-4.54,-0.42c-0.57,0 -0.66,2.93 -0.15,4.73c0.08,0.26 0.53,-0.27 1.02,-1.19c0.88,-1.67 0.42,-3.54 -0.87,-3.54zm26.51,2.34c-0.31,-0.06 -0.9,0.29 -1.72,0.95c-0.88,0.71 -1.39,1.92 -1.12,2.69c0.3,0.86 1.15,1.2 2.24,0.88c0.96,-0.28 1.55,-0.86 1.31,-1.3c-0.25,-0.44 -1.11,-0.57 -1.92,-0.29c-1.23,0.42 -1.2,0.26 0.18,-0.98c1.3,-1.17 1.54,-1.84 1.03,-1.95zm-6.29,0.11c-0.46,-0.06 -0.79,0.13 -0.79,0.51c0,0.5 0.58,0.92 1.28,0.92c0.71,0 1.29,-0.17 1.29,-0.37c0,-0.21 -0.58,-0.62 -1.29,-0.92c-0.17,-0.07 -0.34,-0.12 -0.49,-0.14zm-14.72,0.66c-0.14,0.04 -0.34,0.3 -0.61,0.77c-0.59,1.02 -0.41,1.59 0.65,2.06c2.13,0.93 2.76,0.89 2.76,-0.17c0,-0.52 -0.58,-0.95 -1.29,-0.95c-0.7,0 -1.29,-0.53 -1.3,-1.18c0,-0.39 -0.07,-0.57 -0.21,-0.53zm6.49,1.44c-0.43,0 -0.78,0.85 -0.78,1.89c0,1.04 0.15,1.9 0.33,1.9c0.18,0 0.53,-0.86 0.77,-1.9c0.25,-1.04 0.1,-1.89 -0.32,-1.89zm9.79,0.41c-0.13,0.03 -0.36,0.38 -0.72,1.07c-0.48,0.92 -1.31,1.38 -1.83,1.02c-0.62,-0.42 -0.75,-0.08 -0.37,1.01c0.31,0.91 0.57,2.04 0.57,2.52c0,0.48 0.67,0.86 1.5,0.86c1.27,-0.02 1.31,-0.16 0.22,-0.91c-1.02,-0.71 -1.06,-1.14 -0.21,-2.07c0.58,-0.65 1.05,-1.84 1.03,-2.64c-0.01,-0.6 -0.05,-0.89 -0.19,-0.86zm-5.09,0.49c-0.35,0.11 -0.69,0.74 -0.69,1.79c0,0.75 0.37,1.37 0.81,1.37c0.44,0 0.74,-0.82 0.67,-1.83c-0.07,-1.03 -0.44,-1.44 -0.79,-1.33zm-20.41,1c-0.34,-0.09 -0.54,0.36 -0.61,1.36c-0.1,1.53 0.1,1.76 0.85,0.94c0.64,-0.71 0.69,-1.41 0.14,-2.02c-0.14,-0.16 -0.27,-0.25 -0.38,-0.28zm4.48,0.37c-0.11,0.04 -0.16,0.38 -0.16,1.01c-0.01,0.87 0.66,1.78 1.48,2.02c0.83,0.24 1.54,0.48 1.58,0.54c0.04,0.06 0.07,-0.51 0.07,-1.27c0,-0.76 -0.37,-1.12 -0.82,-0.82c-0.44,0.3 -1.14,-0.03 -1.55,-0.75c-0.3,-0.52 -0.49,-0.77 -0.6,-0.73zm-2.07,0.02c-0.12,-0.06 -0.33,0.23 -0.69,0.83c-0.61,1.04 -0.35,1.85 0.97,3.07c0.99,0.91 2.05,1.64 2.35,1.63c0.3,-0.02 -0.13,-0.6 -0.95,-1.29c-0.83,-0.69 -1.51,-2.07 -1.51,-3.05c-0.01,-0.75 -0.04,-1.14 -0.17,-1.19zm0.52,-15.3c0,0.3 -0.63,0.05 -0.94,0.19c-0.69,0.3 -0.48,0.52 0.52,0.57c0.9,0.04 1.41,-0.18 1.12,-0.5c-0.14,-0.15 -0.4,-0.24 -0.7,-0.26zm8.47,19.32c-0.09,0.1 -0.16,0.43 -0.18,0.98c-0.03,1 0.17,1.56 0.46,1.25c0.28,-0.32 0.31,-1.13 0.06,-1.82c-0.13,-0.38 -0.25,-0.51 -0.34,-0.41zm18.42,1.02c0,0.55 -1.15,0.26 -1.52,0.67c-0.64,0.71 -0.31,0.83 1.12,0.42c1.16,-0.34 1.55,-0.77 0.9,-1c-0.15,-0.06 -0.32,-0.09 -0.5,-0.09zm-30.38,1.65c-0.18,-0.02 -0.27,0.11 -0.27,0.41c0,0.54 0.25,1.26 0.56,1.61c0.32,0.35 0.78,0.41 1.02,0.14c0.24,-0.27 -0.02,-0.99 -0.57,-1.6c-0.31,-0.34 -0.56,-0.53 -0.74,-0.56zm13.43,0.84c-0.85,0.03 -0.7,0.33 0.43,0.87c2.36,1.12 3.71,1.12 2.14,0c-0.7,-0.51 -1.86,-0.9 -2.57,-0.87zm7.22,-1.92c-0.15,-0.07 -0.42,-0.03 -0.8,0.13c-0.73,0.31 -1.33,0.73 -1.33,0.94c0,0.76 1.63,0.33 2.13,-0.57c0.15,-0.27 0.14,-0.44 0,-0.5zm-14.18,3.3c-0.31,0 -0.63,0.22 -1.03,0.66c-0.8,0.89 -0.57,1.14 1.03,1.14c1.6,0 1.83,-0.25 1.03,-1.14c-0.4,-0.44 -0.72,-0.66 -1.03,-0.66zm19.59,-2.54c-0.45,0 -0.81,0.42 -0.81,0.94c0,0.52 0.6,0.95 1.34,0.95c0.73,0 1.1,-0.43 0.8,-0.95c-0.29,-0.52 -0.89,-0.94 -1.33,-0.94zm-3.22,1.92c-0.09,0.01 -0.16,0.09 -0.2,0.23c-0.17,0.59 -0.67,0.82 -1.1,0.53c-0.43,-0.3 -0.78,0.39 -0.78,1.52c0,1.82 0.17,1.92 1.44,0.77c0.8,-0.71 1.2,-0.84 0.9,-0.27c-0.31,0.56 -0.04,1.02 0.6,1.02c0.93,0 0.97,-0.48 0.21,-2.32c-0.39,-0.95 -0.81,-1.5 -1.07,-1.48zm-6.82,4.89c0,-0.16 -0.77,0.16 -1.71,0.72c-0.94,0.55 -1.72,1.42 -1.72,1.91s0.78,0.18 1.72,-0.71c0.94,-0.9 1.71,-1.76 1.71,-1.92zm12.85,-2.97c-0.61,0 -0.51,0.38 0.27,0.93c1.64,1.18 1.94,1.18 1.28,0c-0.29,-0.52 -0.99,-0.93 -1.55,-0.93zm-10.28,2.13c-0.3,-0.02 -0.65,0.15 -1.01,0.56c-0.73,0.8 -0.76,1.17 -0.1,1.17c0.57,0 0.74,-0.57 0.55,1.12c-0.07,0.61 -0.16,2.12 1.47,-0.28c0.43,-2.46 0,-2.51 -0.91,-2.57zm-8.71,-0.72c-0.49,1.43 -0.55,2.2 -0.13,1.72c0.42,-0.49 1.03,-0.59 1.36,-0.23c0.33,0.36 0.63,-0.15 0.67,-1.14c0.1,-2.95 -0.33,-2.85 -1.9,-0.35zm-7.29,1.47c-0.77,-0.12 -0.37,-0.78 0.18,0.81c0.64,1.85 3.52,0.56 3.52,-1.24c0,-0.72 -1.13,-0.27 -2.07,-0.54c-0.48,-0.14 -1.37,1.01 -1.63,0.97zm24.79,-0.75c-0.38,0 -0.26,0.92 -0.74,1.61c0.95,0.43 1.98,0.23 2.57,0.35c1.21,0.46 1.57,0.03 0.18,-1.19c-0.78,-0.69 -1.64,-0.77 -2.01,-0.77z" fill="#c2c2c2" id="svg_1"/>
 </g>
</svg>