<?xml version="1.0" encoding="UTF-8" standalone="no" ?>
<!DOCTYPE svg PUBLIC "-//W3C//DTD SVG 1.1//EN" "http://www.w3.org/Graphics/SVG/1.1/DTD/svg11.dtd">
<svg xmlns="http://www.w3.org/2000/svg" xmlns:xlink="http://www.w3.org/1999/xlink" version="1.1" width="640" height="480" viewBox="0 0 640 480" xml:space="preserve">
<desc>Created with Fabric.js 3.6.6</desc>
<defs>
</defs>
<g transform="matrix(1 0 0 1 12 12)"  >
<g style=""   >
		<g transform="matrix(1 0 0 1 0 0)"  >
<path style="stroke: none; stroke-width: 1; stroke-dasharray: none; stroke-linecap: butt; stroke-dashoffset: 0; stroke-linejoin: miter; stroke-miterlimit: 4; fill: rgb(0,0,0); fill-rule: evenodd; opacity: 0.849;"  transform=" translate(-12, -12)" d="M 20 12.0006 C 20 7.55869 16.4127 4 11.9994 4 C 7.58735 4 4 7.5586 4 12.0006 C 4 16.4091 7.58977 20 11.9994 20 C 16.4103 20 20 16.4091 20 12.0006 Z M 21 12.0006 C 21 7.00399 16.9626 3 11.9994 3 C 7.03739 3 3 7.00399 3 12.0006 C 3 16.9613 7.03739 21 11.9994 21 C 16.9626 21 21 16.9613 21 12.0006 Z" stroke-linecap="round" />
</g>
		<g transform="matrix(1 0 0 1 0 0)"  >
<path style="stroke: none; stroke-width: 1; stroke-dasharray: none; stroke-linecap: butt; stroke-dashoffset: 0; stroke-linejoin: miter; stroke-miterlimit: 4; fill: rgb(255,255,255); fill-rule: nonzero; opacity: 0.849;"  transform=" translate(-12, -12)" d="M 11.9995 4 C 16.4112 4 20 7.5591 20 12.0005 C 20 16.4101 16.4112 20 11.9995 20 C 7.58879 20 4 16.4101 4 12.0005 C 4 7.5591 7.58879 4 11.9995 4 V 4 Z" stroke-linecap="round" />
</g>
</g>
</g>
<g transform="matrix(0.02 0 0 0.02 11.81 11.03)"  >
<g style=""   >
		<g transform="matrix(1 0 0 1 -2 32.83)"  >
<path style="stroke: rgb(0,0,0); stroke-width: 26.2797; stroke-dasharray: none; stroke-linecap: butt; stroke-dashoffset: 0; stroke-linejoin: miter; stroke-miterlimit: 4; fill: none; fill-rule: evenodd; opacity: 1;"  transform=" translate(-288, -322.83)" d="M 288.272 138.471 C 286.762 146.8 92.8252 507.193 92.8252 507.193 L 483.173 506.547 L 288.272 138.471 Z" stroke-linecap="round" />
</g>
		<g transform="matrix(1 0 0 1 93.99 44.89)"  >
<path style="stroke: rgb(0,0,0); stroke-width: 26.2797; stroke-dasharray: none; stroke-linecap: butt; stroke-dashoffset: 0; stroke-linejoin: miter; stroke-miterlimit: 4; fill: rgb(0,0,0); fill-rule: evenodd; opacity: 1;"  transform=" translate(-383.99, -334.89)" d="M 288.272 162.581 C 287.532 166.66 275.502 187.262 301.104 277.13 C 327.777 370.757 399.376 507.193 399.376 507.193 L 483.173 506.547 L 288.272 162.581 Z" stroke-linecap="round" />
</g>
		<g transform="matrix(1 0 0 1 -94.07 44.89)"  >
<path style="stroke: rgb(0,0,0); stroke-width: 26.2797; stroke-dasharray: none; stroke-linecap: butt; stroke-dashoffset: 0; stroke-linejoin: miter; stroke-miterlimit: 4; fill: rgb(0,0,0); fill-rule: evenodd; opacity: 1;"  transform=" translate(-195.93, -334.89)" d="M 291.652 162.581 C 292.392 166.66 304.422 187.262 278.82 277.13 C 252.147 370.757 180.548 507.193 180.548 507.193 L 96.751 506.547 L 291.652 162.581 Z" stroke-linecap="round" />
</g>
		<g transform="matrix(1 0 0 1 76.44 -4.86)"  >
<path style="stroke: rgb(0,0,0); stroke-width: 26.2797; stroke-dasharray: none; stroke-linecap: butt; stroke-dashoffset: 0; stroke-linejoin: miter; stroke-miterlimit: 4; fill: none; fill-rule: evenodd; opacity: 1;"  transform=" translate(-366.44, -285.14)" d="M 249.696 63.7305 L 483.174 506.547 L 249.696 63.7305 Z" stroke-linecap="round" />
</g>
		<g transform="matrix(1 0 0 1 -78.05 -3.66)"  >
<path style="stroke: rgb(0,0,0); stroke-width: 26.2797; stroke-dasharray: none; stroke-linecap: butt; stroke-dashoffset: 0; stroke-linejoin: miter; stroke-miterlimit: 4; fill: none; fill-rule: evenodd; opacity: 1;"  transform=" translate(-211.95, -286.34)" d="M 328.515 66.1414 L 95.3933 506.547 L 328.515 66.1414 Z" stroke-linecap="round" />
</g>
</g>
</g>
</svg>