<?xml version="1.0"?>
<svg width="18" height="18" xmlns="http://www.w3.org/2000/svg" xmlns:svg="http://www.w3.org/2000/svg" version="1.1" xml:space="preserve">
 <desc>Created with Fabric.js 3.6.6</desc>

 <g class="layer">
  <title>Layer 1</title>
  <g id="svg_1" transform="matrix(1, 0, 0, 1, 9, 9)">
   <g id="svg_2">
    <g id="svg_3" transform="matrix(1 0 0 1 0 0)">
     <path d="m20,12c0,-4.44 -3.59,-8 -8,-8c-4.41,0 -8,3.56 -8,8c0,4.41 3.59,8 8,8c4.41,0 8,-3.59 8,-8zm1,0c0,-5 -4.04,-9 -9,-9c-4.96,0 -9,4 -9,9c0,4.96 4.04,9 9,9c4.96,0 9,-4.04 9,-9z" fill="rgb(0,0,0)" fill-rule="evenodd" id="svg_4" opacity="0.85" stroke-dashoffset="0" stroke-miterlimit="4" transform=" translate(-12, -12)"/>
    </g>
    <g id="svg_5" transform="matrix(1 0 0 1 0 0)">
     <path d="m12,4c4.41,0 8,3.56 8,8c0,4.41 -3.59,8 -8,8c-4.41,0 -8,-3.59 -8,-8c0,-4.44 3.59,-8 8,-8l0,0z" fill="rgb(255,255,255)" fill-rule="nonzero" id="svg_6" opacity="0.85" stroke-dashoffset="0" stroke-miterlimit="4" transform=" translate(-12, -12)"/>
    </g>
   </g>
  </g>
  <g id="svg_7" transform="matrix(0.0237071, 0, 0, 0.0231184, 7.55278, 6.48842)">
   <g id="svg_8">
    <g id="svg_9" transform="matrix(1, 0, 0, 1, -2, 32.83)">
     <path d="m357.22,212.02c-1.51,8.33 -195.44,368.72 -195.44,368.72l390.34,-0.64l-194.9,-368.08z" fill="none" fill-rule="evenodd" id="svg_10" stroke="rgb(0,0,0)" stroke-dashoffset="0" stroke-miterlimit="4" stroke-width="26.28" transform="translate(-288, -322.83)"/>
    </g>
    <g id="svg_11" transform="matrix(1, 0, 0, 1, 93.99, 44.89)">
     <path d="m357.22,236.13c-0.74,4.08 -12.77,24.68 12.83,114.55c26.68,93.63 98.28,230.06 98.28,230.06l83.79,-0.64l-194.9,-343.97z" fill="rgb(0,0,0)" fill-rule="evenodd" id="svg_12" stroke="rgb(0,0,0)" stroke-dashoffset="0" stroke-miterlimit="4" stroke-width="26.28" transform="translate(-383.99, -334.89)"/>
    </g>
    <g id="svg_13" transform="matrix(1, 0, 0, 1, -94.07, 44.89)">
     <path d="m360.6,236.13c0.74,4.08 12.77,24.68 -12.83,114.55c-26.67,93.63 -98.27,230.06 -98.27,230.06l-83.8,-0.64l194.9,-343.97z" fill="rgb(0,0,0)" fill-rule="evenodd" id="svg_14" stroke="rgb(0,0,0)" stroke-dashoffset="0" stroke-miterlimit="4" stroke-width="26.28" transform="translate(-195.93, -334.89)"/>
    </g>
    <g id="svg_15" transform="matrix(1, 0, 0, 1, 76.44, -4.86)">
     <path d="m318.65,137.28l233.47,442.82l-233.47,-442.82z" fill="none" fill-rule="evenodd" id="svg_16" stroke="rgb(0,0,0)" stroke-dashoffset="0" stroke-miterlimit="4" stroke-width="26.28" transform="translate(-366.44, -285.14)"/>
    </g>
    <g id="svg_17" transform="matrix(1, 0, 0, 1, -78.05, -3.66)">
     <path d="m397.46,139.69l-233.12,440.41l233.12,-440.41z" fill="none" fill-rule="evenodd" id="svg_18" stroke="rgb(0,0,0)" stroke-dashoffset="0" stroke-miterlimit="4" stroke-width="26.28" transform="translate(-211.95, -286.34)"/>
    </g>
   </g>
  </g>
 </g>
</svg>