<?xml version="1.0"?>
<svg width="24" height="24" xmlns="http://www.w3.org/2000/svg" xmlns:svg="http://www.w3.org/2000/svg" xmlns:xlink="http://www.w3.org/1999/xlink">
 <g class="layer">
  <title>Layer 1</title>
  <path clip-rule="evenodd" d="m20,12c0,-4.44 -3.59,-8 -8,-8c-4.41,0 -8,3.56 -8,8c0,4.41 3.59,8 8,8c4.41,0 8,-3.59 8,-8zm1,0c0,-5 -4.04,-9 -9,-9c-4.96,0 -9,4 -9,9c0,4.96 4.04,9 9,9c4.96,0 9,-4.04 9,-9z" fill="black" fill-rule="evenodd" id="svg_1" opacity="0.85"/>
  <path d="m12,4c4.41,0 8,3.56 8,8c0,4.41 -3.59,8 -8,8c-4.41,0 -8,-3.59 -8,-8c0,-4.44 3.59,-8 8,-8l0,0z" fill="white" id="svg_2" opacity="0.85"/>
  <use id="svg_4" transform="matrix(0.883632 0 0 0.904308 6.75202 5.97878)" xlink:href="#svg_3"/>
 </g>
 <defs>
  <symbol height="12" id="svg_3" viewBox="0 0 580 580" width="12" xmlns="http://www.w3.org/2000/svg">
   <path d="m292.53,455.65l10.36,85.15c1.25,9.3 6.83,14.72 16.74,16.26c6.82,0.93 12.79,-1 17.9,-5.8c5.11,-4.81 7.2,-10.62 6.28,-17.44l-12.25,-96.75c-1.24,-7.13 -5.56,-11.44 -9.68,-17.2l-31.74,-44.25l30.69,-53.45l15.33,19.52c1.24,1.87 3.1,3.26 5.59,4.19l34.47,16.74c1.54,0.61 2.93,0.92 4.17,0.92c4.34,0 8.06,-1.71 11.16,-5.12c3.1,-3.41 4.65,-7.28 4.65,-11.62c0,-7.75 -3.72,-12.86 -11.16,-15.34l-26.56,-14.86l-38.12,-46.03c-5.27,-6.2 -12.71,-10.07 -22.31,-11.62c-16.73,-2.48 -29.28,3.41 -37.65,17.66l-42.3,72.98c-2.79,4.66 -4.03,10.39 -3.72,17.2l1.39,92.5l-32.07,68.8c-1.24,2.79 -2.01,5.11 -2.31,6.96c-0.94,5.89 0.3,11.08 3.7,15.58c3.41,4.49 8.07,7.2 13.96,8.14c9.91,1.54 16.88,-1.87 20.91,-10.23l35.33,-75.31c1.24,-2.79 1.86,-5.73 1.86,-8.82l-0.47,-57.18l35.85,48.42zm24.58,-200.89c8.37,0 15.65,-3.02 21.85,-9.06c6.19,-6.04 9.29,-13.4 9.29,-22.07c0,-8.37 -3.1,-15.66 -9.29,-21.85c-6.2,-6.2 -13.48,-9.3 -21.85,-9.3c-8.68,0 -16.04,3.1 -22.09,9.3c-6.04,6.19 -9.06,13.48 -9.06,21.85c0,8.67 3.02,16.03 9.06,22.07c6.05,6.04 13.41,9.06 22.09,9.06zm-108.77,85.07l46.48,-79.95c3.11,-5.26 2.02,-9.29 -3.25,-12.08l-14.88,-8.84c-5.26,-3.09 -9.29,-2 -12.08,3.26l-46.49,79.95c-3.09,5.27 -2,9.3 3.27,12.09l14.86,8.82c5.27,3.1 9.3,2.02 12.09,-3.25z" fill="#000000"/>
   <path d="m378.77,360.29l0,180.37" stroke="#000000" stroke-linecap="round" stroke-width="12.87"/>
   <path clip-rule="evenodd" d="m31.67,173.24l256.63,-136.86l256.63,136.86l-17.19,17.5l-85.79,-34.61l-153.74,-18.5l-154.09,18.24l-85.35,34.49l-17.1,-17.12z" fill="#000000" fill-rule="evenodd" stroke="#000000" stroke-linecap="round" stroke-linejoin="round" stroke-width="22.94"/>
   <path d="m488.8,172.58l-32,0l0,308.13l32,0l0,-308.13z" fill="#000000" stroke="#000000" stroke-linecap="round" stroke-linejoin="round" stroke-width="25.17"/>
   <path d="m116.8,172.58l-32,0l0,308.13l32,0l0,-308.13z" fill="#000000" stroke="#000000" stroke-linecap="round" stroke-linejoin="round" stroke-width="25.17"/>
  </symbol>
 </defs>
</svg>