<?xml version="1.0"?>
<svg viewBox="0 0 24 24" xmlns="http://www.w3.org/2000/svg" xmlns:svg="http://www.w3.org/2000/svg" xmlns:xlink="http://www.w3.org/1999/xlink">
 <g class="layer">
  <title>Layer 1</title>
  <path clip-rule="evenodd" d="m20,12c0,-4.44 -3.59,-8 -8,-8c-4.41,0 -8,3.56 -8,8c0,4.41 3.59,8 8,8c4.41,0 8,-3.59 8,-8zm1,0c0,-5 -4.04,-9 -9,-9c-4.96,0 -9,4 -9,9c0,4.96 4.04,9 9,9c4.96,0 9,-4.04 9,-9z" fill="black" fill-rule="evenodd" id="svg_1" opacity="0.85"/>
  <path d="m12,4c4.41,0 8,3.56 8,8c0,4.41 -3.59,8 -8,8c-4.41,0 -8,-3.59 -8,-8c0,-4.44 3.59,-8 8,-8l0,0z" fill="white" id="svg_2" opacity="0.85"/>
  <use id="svg_4" transform="matrix(1.40485 0 0 1.19046 -1.55149 -0.515197)" x="3.77" xlink:href="#svg_3" y="4.03"/>
 </g>
 <defs>
  <symbol height="12" id="svg_3" viewBox="0 0 580 580" width="12" xmlns="http://www.w3.org/2000/svg">
   <path d="m391.19,274.91c0,30.61 -62.26,80.06 -115.34,80.06c-109.58,0 -84.59,-37.13 -84.59,-67.75c0,-30.61 31.5,-43.11 84.59,-43.11c53.08,0 115.34,-24.63 115.34,30.8z" fill="#3f3f3f"/>
   <path d="m485.75,450.15c-1.35,43.71 -160.56,74.24 -268.25,70.9c-107.69,-3.34 -108.33,-36.99 -121.71,-82.98c-15.8,-54.28 91.27,-54.58 197.43,-73.1c114.23,-19.93 193.89,41.47 192.53,85.18z" fill="#3f3f3f"/>
   <path d="m356.78,196.64c0,20.37 -34.93,22.45 -64.16,22.45c-29.23,0 -57.6,-1.56 -64.16,-20.85c-22.9,-67.36 34.93,-52.93 64.16,-52.93c29.23,0 64.16,0 64.16,51.33z" fill="#3f3f3f"/>
   <path d="m329.11,89.17c0,16.83 -11.84,30.48 -26.46,30.48c-14.62,0 -51.77,-7.23 -51.77,-24.06c0,-16.83 37.15,-36.89 51.77,-36.89c14.62,0 26.46,13.64 26.46,30.47z" fill="#3f3f3f"/>
  </symbol>
 </defs>
</svg>