<?xml version="1.0"?>
<svg width="24" height="24" xmlns="http://www.w3.org/2000/svg" xmlns:svg="http://www.w3.org/2000/svg" xmlns:xlink="http://www.w3.org/1999/xlink">
 <g class="layer">
  <title>Layer 1</title>
  <path clip-rule="evenodd" d="m20,12c0,-4.44 -3.59,-8 -8,-8c-4.41,0 -8,3.56 -8,8c0,4.41 3.59,8 8,8c4.41,0 8,-3.59 8,-8zm1,0c0,-5 -4.04,-9 -9,-9c-4.96,0 -9,4 -9,9c0,4.96 4.04,9 9,9c4.96,0 9,-4.04 9,-9z" fill="black" fill-rule="evenodd" id="svg_1" opacity="0.85"/>
  <path d="m12,4c4.41,0 8,3.56 8,8c0,4.41 -3.59,8 -8,8c-4.41,0 -8,-3.59 -8,-8c0,-4.44 3.59,-8 8,-8l0,0z" fill="white" id="svg_2" opacity="0.85"/>
  <use id="svg_4" transform="matrix(1.06462 0 0 1.10847 4.79068 5.26881)" x="0.72" xlink:href="#svg_3" y="0.03"/>
 </g>
 <defs>
  <symbol height="12" id="svg_3" viewBox="0 0 48 48" width="12" xmlns="http://www.w3.org/2000/svg">
   <path clip-rule="evenodd" d="m12.88,7.38c-1.84,1.23 -2.33,3.71 -1.1,5.55l0.12,0.17c1.39,2.09 3.11,3.93 5.1,5.47l7,5.43l0,0l-8.41,-2.8c-2.38,-0.8 -4.87,-1.2 -7.38,-1.2l-0.21,0c-2.21,0 -4,1.79 -4,4c0,2.21 1.79,4 4,4l0.21,0c2.51,0 5,-0.4 7.38,-1.2l8.41,-2.8l-7,5.43c-1.99,1.54 -3.71,3.38 -5.1,5.47l-0.12,0.17c-1.23,1.84 -0.74,4.32 1.1,5.55c1.83,1.23 4.32,0.74 5.55,-1.1l0.11,-0.17c1.4,-2.09 2.45,-4.39 3.11,-6.81l2.35,-8.54l0,0l0,0l2.35,8.54c0.66,2.42 1.71,4.72 3.11,6.81l0.11,0.17c1.23,1.84 3.72,2.33 5.55,1.1c1.84,-1.23 2.33,-3.71 1.1,-5.55l-0.12,-0.17c-1.39,-2.09 -3.11,-3.93 -5.1,-5.47l-7,-5.43l8.41,2.8c2.38,0.8 4.87,1.2 7.38,1.2l0.21,0c2.21,0 4,-1.79 4,-4c0,-2.21 -1.79,-4 -4,-4l-0.21,0c-2.51,0 -5,0.4 -7.38,1.2l-8.41,2.8l0,0l7,-5.43c1.99,-1.54 3.71,-3.38 5.1,-5.47l0.12,-0.17c1.23,-1.84 0.74,-4.32 -1.1,-5.55c-1.84,-1.23 -4.32,-0.74 -5.55,1.1l-0.12,0.17c-1.39,2.09 -2.44,4.39 -3.11,6.81l-2.34,8.54l-2.34,-8.54c-0.67,-2.42 -1.72,-4.72 -3.11,-6.81l-0.12,-0.17c-1.23,-1.84 -3.71,-2.33 -5.55,-1.1zm11.12,16.62l0,0l0,0l0,0l0,0z" fill="#000000" fill-rule="evenodd"/>
  </symbol>
 </defs>
</svg>