<?xml version="1.0"?>
<svg width="24" height="24" xmlns="http://www.w3.org/2000/svg" xmlns:svg="http://www.w3.org/2000/svg" xmlns:xlink="http://www.w3.org/1999/xlink">
 <g class="layer">
  <title>Layer 1</title>
  <path clip-rule="evenodd" d="m20,12c0,-4.44 -3.59,-8 -8,-8c-4.41,0 -8,3.56 -8,8c0,4.41 3.59,8 8,8c4.41,0 8,-3.59 8,-8zm1,0c0,-5 -4.04,-9 -9,-9c-4.96,0 -9,4 -9,9c0,4.96 4.04,9 9,9c4.96,0 9,-4.04 9,-9z" fill="black" fill-rule="evenodd" id="svg_1" opacity="0.85"/>
  <path d="m12,4c4.41,0 8,3.56 8,8c0,4.41 -3.59,8 -8,8c-4.41,0 -8,-3.59 -8,-8c0,-4.44 3.59,-8 8,-8l0,0z" fill="white" id="svg_2" opacity="0.85" transform="matrix(1 0 0 1 0 0)"/>
  <use fill="#000000" id="svg_6" transform="matrix(1.11248 0 0 1.18248 5.37512 4.75514)" x="0" xlink:href="#svg_5" y="0"/>
 </g>
 <defs>
  <symbol height="12" id="svg_5" viewBox="0 0 48 48" width="12" xmlns="http://www.w3.org/2000/svg">
   <path clip-rule="evenodd" d="m24,4c1.1,0 2,0.9 2,2l0,38l-4,0l0,-38c0,-1.1 0.9,-2 2,-2z" fill="#000000" fill-rule="evenodd" opacity="1"/>
   <path d="m12,8l22,0l6,6l-6,6l-22,0l0,-12z" fill="#000000"/>
   <path d="m36,24l-22,0l-6,6l6,6l22,0l0,-12z" fill="#000000"/>
  </symbol>
 </defs>
</svg>