<?xml version="1.0"?>
<svg width="24" height="24" xmlns="http://www.w3.org/2000/svg" xmlns:svg="http://www.w3.org/2000/svg" xmlns:xlink="http://www.w3.org/1999/xlink">
 <g class="layer">
  <title>Layer 1</title>
  <path clip-rule="evenodd" d="m20,12c0,-4.44 -3.59,-8 -8,-8c-4.41,0 -8,3.56 -8,8c0,4.41 3.59,8 8,8c4.41,0 8,-3.59 8,-8zm1,0c0,-5 -4.04,-9 -9,-9c-4.96,0 -9,4 -9,9c0,4.96 4.04,9 9,9c4.96,0 9,-4.04 9,-9z" fill="black" fill-rule="evenodd" id="svg_1" opacity="0.85"/>
  <path d="m12,4c4.41,0 8,3.56 8,8c0,4.41 -3.59,8 -8,8c-4.41,0 -8,-3.59 -8,-8c0,-4.44 3.59,-8 8,-8l0,0z" fill="white" id="svg_2" opacity="0.85"/>
  <use fill="#ffffff" id="svg_5" transform="matrix(0.0218608 0 0 0.0216824 -14.8815 -19.7262)" x="947.35" xlink:href="#svg_3" y="1167.34"/>
 </g>
 <defs>
  <symbol height="580" id="svg_3" viewBox="0 0 580 580" width="580" xmlns="http://www.w3.org/2000/svg">
   <path clip-rule="evenodd" d="m288.27,138.47c-1.51,8.33 -195.44,368.72 -195.44,368.72l390.34,-0.64l-194.9,-368.08z" fill-rule="evenodd" id="svg_4" stroke="black" stroke-width="26.28"/>
   <path clip-rule="evenodd" d="m288.27,162.58c-0.74,4.08 -12.77,24.68 12.83,114.55c26.68,93.63 98.28,230.06 98.28,230.06l83.79,-0.64l-194.9,-343.97z" fill="black" fill-rule="evenodd" id="svg_6" stroke="black" stroke-width="26.28"/>
   <path clip-rule="evenodd" d="m291.65,162.58c0.74,4.08 12.77,24.68 -12.83,114.55c-26.67,93.63 -98.27,230.06 -98.27,230.06l-83.8,-0.64l194.9,-343.97z" fill="black" fill-rule="evenodd" id="svg_7" stroke="black" stroke-width="26.28"/>
   <path clip-rule="evenodd" d="m249.7,63.73l233.47,442.82l-233.47,-442.82z" fill-rule="evenodd" id="svg_8" stroke="black" stroke-width="26.28"/>
   <path clip-rule="evenodd" d="m328.51,66.14l-233.12,440.41l233.12,-440.41z" fill-rule="evenodd" id="svg_9" stroke="black" stroke-width="26.28"/>
  </symbol>
 </defs>
</svg>